<svg width="1175" height="1141" viewBox="0 0 1175 1141" fill="none" xmlns="http://www.w3.org/2000/svg">
<path d="M648.612 31.8446C648.612 31.8446 593.112 33.7546 596.672 67.3846C600.232 101.015 656.532 93.3846 656.532 93.3846C656.532 93.3846 719.682 83.8146 708.472 40.0746C704.902 23.6146 648.612 31.8446 648.612 31.8446Z" fill="white"/>
<path d="M667.7 0.0451186C667.7 0.0451186 206.48 -14.0249 46.24 454.765C-114 923.555 159.92 1134.7 595.16 1140.11C1014.97 1153.51 1125.61 905.845 1125.61 905.845C1125.61 905.845 1242.07 746.555 1115.94 445.025C997.92 179.765 885.32 6.54512 667.7 0.0451186Z" fill="#FEFE00"/>
<path d="M477.148 97.4836C477.148 97.4836 260.608 162.484 143.678 359.484C26.7483 556.484 32.1682 712.444 32.1682 712.444C32.1682 712.444 -1.39175 945.224 287.678 1071.89C595.158 1177.45 993.588 1126.57 1097.33 900.444C1097.33 900.444 1218.86 688.794 1001.16 329.174C830.098 46.6036 696.928 65.0036 628.718 67.1736C626.218 91.3936 643.608 130.504 571.338 146.174C496.848 162.384 480.398 113.724 477.148 97.4836Z" fill="url(#paint0_linear_198_14)"/>
<path d="M548.612 56.8446C548.612 56.8446 493.112 58.7546 496.672 92.3846C500.232 126.015 556.532 118.385 556.532 118.385C556.532 118.385 619.682 108.815 608.472 65.0746C604.902 48.6146 548.612 56.8446 548.612 56.8446Z" fill="white"/>
<path d="M469.032 569.844C469.032 569.844 549.692 652.394 674.472 599.344C718.592 658.344 718.332 797.734 546.982 797.744C446.022 797.714 339.112 637.204 469.032 569.844Z" fill="#181818"/>
<path d="M570.261 687.545C570.261 687.545 475.261 687.545 475.791 735.995C476.321 784.445 567.551 779.575 567.551 779.575C567.551 779.575 651.461 779.575 651.461 729.765C651.461 679.955 570.261 687.545 570.261 687.545Z" fill="#FF9749"/>
<path d="M240.312 427.704C240.312 427.704 238.962 485.084 292.312 485.084C345.662 485.084 353.752 430.084 353.752 430.084C353.752 430.084 364.042 369.184 304.492 362.964C244.942 356.744 240.312 427.704 240.312 427.704Z" fill="#181818"/>
<path d="M871.382 457.624C871.382 457.624 820.382 460.994 821.982 511.884C823.582 562.774 872.872 562.764 872.872 562.764C872.872 562.764 924.562 558.434 922.672 511.614C920.782 464.794 877.542 457.074 871.382 457.624Z" fill="#181818"/>
<path d="M296.342 409.905C307.443 409.905 316.442 400.906 316.442 389.805C316.442 378.704 307.443 369.705 296.342 369.705C285.241 369.705 276.242 378.704 276.242 389.805C276.242 400.906 285.241 409.905 296.342 409.905Z" fill="white"/>
<path d="M869.483 504.305C880.584 504.305 889.583 495.306 889.583 484.205C889.583 473.105 880.584 464.105 869.483 464.105C858.382 464.105 849.383 473.105 849.383 484.205C849.383 495.306 858.382 504.305 869.483 504.305Z" fill="white"/>
<defs>
<linearGradient id="paint0_linear_198_14" x1="409.898" y1="116.764" x2="701.448" y2="1133.53" gradientUnits="userSpaceOnUse">
<stop stop-color="#FEFE00"/>
<stop offset="1" stop-color="#FF9749"/>
</linearGradient>
</defs>
</svg>
